<?xml version="1.0" standalone="no"?>
<!DOCTYPE svg PUBLIC "-//W3C//DTD SVG 20010904//EN"
 "http://www.w3.org/TR/2001/REC-SVG-20010904/DTD/svg10.dtd">
<svg version="1.0" xmlns="http://www.w3.org/2000/svg"
 width="1024.000000pt" height="1024.000000pt" viewBox="0 0 1024.000000 1024.000000"
 preserveAspectRatio="xMidYMid meet">
<metadata>
Created by potrace 1.11, written by Peter Selinger 2001-2013
</metadata>
<g transform="translate(0.000000,1024.000000) scale(0.100000,-0.100000)"
fill="#000000" stroke="none">
<path d="M4502 6079 c-179 -69 -224 -300 -83 -432 55 -52 104 -70 186 -71 152
0 267 114 267 266 0 185 -189 306 -370 237z m186 -106 c71 -53 90 -136 50
-213 -28 -54 -72 -82 -133 -82 -168 0 -214 237 -60 308 39 18 110 12 143 -13z"/>
<path d="M6307 6093 c-5 -8 -191 -447 -208 -491 -9 -23 -8 -23 48 -20 l57 3
22 55 22 55 104 3 c117 3 115 4 143 -70 l18 -48 58 0 c57 0 58 1 50 23 -5 12
-54 128 -109 257 l-100 235 -50 3 c-28 2 -52 -1 -55 -5z m86 -211 c15 -38 27
-74 27 -80 0 -8 -22 -12 -66 -12 -49 0 -65 3 -61 13 42 107 60 147 66 147 3 0
18 -31 34 -68z"/>
<path d="M7332 6087 c-74 -23 -118 -115 -91 -191 17 -49 58 -79 137 -101 95
-26 122 -42 122 -69 0 -31 -34 -56 -76 -56 -17 0 -58 13 -90 30 -63 32 -68 31
-105 -21 l-20 -28 45 -26 c60 -35 100 -46 174 -46 111 0 182 58 182 148 0 87
-39 125 -170 163 -84 25 -100 34 -100 61 0 52 76 64 154 25 l47 -24 27 40 26
40 -23 19 c-51 42 -167 59 -239 36z"/>
<path d="M2982 6078 c3 -7 42 -122 88 -255 l83 -243 48 0 48 0 19 53 c11 28
33 95 51 147 37 111 47 132 55 110 3 -8 22 -62 41 -120 71 -206 61 -190 116
-190 27 0 49 1 49 3 0 1 38 114 85 251 47 136 85 249 85 252 0 2 -26 4 -57 4
l-58 0 -49 -165 c-27 -91 -52 -165 -56 -165 -3 0 -30 74 -60 165 l-55 166 -49
-3 -49 -3 -57 -170 -57 -170 -26 85 c-14 47 -38 124 -52 173 l-26 87 -61 0
c-44 0 -59 -3 -56 -12z"/>
<path d="M3820 5835 l0 -255 55 0 54 0 3 103 3 102 103 3 102 3 0 -106 0 -105
55 0 55 0 0 255 0 255 -55 0 -55 0 0 -100 0 -100 -105 0 -105 0 0 100 0 100
-55 0 -55 0 0 -255z"/>
<path d="M5160 5836 l0 -256 55 0 54 0 3 83 3 82 41 3 40 3 59 -86 59 -85 63
0 64 0 -62 91 c-33 50 -59 92 -57 93 2 1 18 13 36 25 44 30 65 75 65 137 0 62
-26 109 -75 139 -28 17 -54 20 -190 23 l-158 4 0 -256z m288 138 c16 -11 22
-25 22 -53 0 -58 -24 -73 -120 -79 l-80 -5 0 77 0 76 78 0 c54 0 84 -5 100
-16z"/>
<path d="M5662 5838 l3 -253 193 -3 192 -2 0 50 0 50 -135 0 -135 0 0 55 0 55
120 0 120 0 0 50 0 50 -120 0 -120 0 0 50 0 50 135 0 135 0 0 50 0 50 -195 0
-195 0 2 -252z"/>
<path d="M6700 5836 l0 -256 113 0 c132 0 197 16 259 63 112 86 123 271 22
371 -61 60 -96 70 -251 74 l-143 4 0 -256z m269 136 c48 -24 73 -62 78 -119
11 -106 -59 -172 -179 -173 l-58 0 0 155 0 155 63 0 c39 0 74 -6 96 -18z"/>
<path d="M3413 5076 c-213 -52 -363 -242 -363 -460 0 -133 44 -241 135 -332
256 -258 710 -154 817 189 22 72 26 200 8 268 -66 246 -336 398 -597 335z
m254 -205 c44 -22 93 -73 120 -124 21 -40 29 -168 14 -224 -15 -54 -65 -120
-121 -158 -42 -28 -51 -30 -142 -30 -96 0 -96 0 -154 40 -40 28 -66 57 -88 95
-28 50 -31 63 -31 145 0 97 14 136 71 204 71 84 222 108 331 52z"/>
<path d="M8149 4893 c-61 -101 -112 -183 -114 -183 -1 0 -51 81 -110 180
l-107 180 -114 0 c-63 0 -114 -2 -114 -5 0 -2 76 -125 170 -272 l170 -268 0
-182 0 -183 99 0 99 0 7 84 c3 46 3 125 0 175 l-8 91 171 268 c94 148 174 275
177 283 4 12 -14 14 -105 14 l-110 0 -111 -182z"/>
<path d="M2010 4615 l0 -455 100 0 100 0 0 135 0 135 98 0 c180 0 282 36 361
126 92 105 95 280 6 397 -25 32 -55 55 -102 79 l-67 33 -248 3 -248 3 0 -456z
m455 259 c48 -22 69 -59 69 -119 0 -106 -66 -148 -224 -143 l-95 3 -3 138 -3
137 112 0 c81 0 120 -4 144 -16z"/>
<path d="M4405 4615 l0 -455 348 0 347 0 0 85 0 85 -247 2 -248 3 0 95 0 95
218 3 217 2 0 90 0 90 -220 0 -221 0 3 93 3 92 248 3 247 2 0 85 0 85 -347 0
-348 0 0 -455z"/>
<path d="M5410 4980 l0 -90 140 0 140 0 0 -365 0 -365 105 0 105 0 0 363 -1
362 141 3 140 3 0 89 0 90 -385 0 -385 0 0 -90z"/>
<path d="M6530 4615 l0 -455 100 0 100 0 0 145 0 145 78 0 78 0 99 -145 98
-145 114 0 c62 0 113 2 113 5 0 3 -48 76 -106 161 -58 85 -105 156 -103 158 2
1 25 14 51 29 101 58 145 152 135 290 -6 89 -35 148 -97 199 -75 60 -122 68
-405 68 l-255 0 0 -455z m501 252 c61 -41 77 -113 39 -175 -31 -51 -71 -62
-215 -62 l-125 0 0 130 0 130 134 0 c122 0 136 -2 167 -23z"/>
</g>
</svg>
